Coordinates
version=1
nRows=7
nColumns=40
inDegrees=yes

Units are S.I. units (second, meters, Newtons, ...)
Angles are in degrees.

endheader
time	pelvis_tilt	pelvis_list	pelvis_rotation	pelvis_tx	pelvis_ty	pelvis_tz	hip_flexion_r	hip_adduction_r	hip_rotation_r	knee_angle_r	knee_angle_r_beta	ankle_angle_r	subtalar_angle_r	mtp_angle_r	hip_flexion_l	hip_adduction_l	hip_rotation_l	knee_angle_l	knee_angle_l_beta	ankle_angle_l	subtalar_angle_l	mtp_angle_l	lumbar_extension	lumbar_bending	lumbar_rotation	arm_flex_r	arm_add_r	arm_rot_r	elbow_flex_r	pro_sup_r	wrist_flex_r	wrist_dev_r	arm_flex_l	arm_add_l	arm_rot_l	elbow_flex_l	pro_sup_l	wrist_flex_l	wrist_dev_l
     50.44000000	     -4.20480073	     -4.65825242	     -4.16285381	      0.83630554	      0.92515620	      0.47914579	     19.79185590	      1.97289004	    -10.46927366	     20.79307328	     20.79307328	      6.68035476	     -3.71889572	     -3.07826299	      4.33162818	     -8.98755322	     -7.27832866	     33.72009817	     33.72009817	     15.18985723	     -9.23918773	    -10.44601513	     -9.11923749	      6.94338794	      0.39193576	     -2.33568235	    -11.66690451	     -9.22112575	     34.37413207	     46.04248161	      0.00000000	      0.00000000	     12.79387496	    -12.87891109	    -14.75212033	     71.93217632	     47.39993393	      0.00000000	      0.00000000
     50.45342857	     -4.18564231	     -4.69587133	     -3.66487114	      0.83626791	      0.92539331	      0.48150594	     19.25945794	      1.96645668	    -11.17074287	     20.80363198	     20.80363198	      7.18951002	     -3.21435128	     -3.12954541	      6.06087963	     -9.46006489	     -6.23455776	     37.21699877	     37.21699877	     12.26880667	    -11.43408755	    -14.12792251	     -8.91257755	      7.05315237	      0.45297732	     -1.71747876	    -12.01081860	     -8.25870641	     37.23154639	     45.86785528	      0.00000000	      0.00000000	     12.34400084	    -12.42987452	    -13.89934079	     69.57151127	     47.33352111	      0.00000000	      0.00000000
     50.46685714	     -4.06673159	     -4.89399376	     -3.16509586	      0.83606991	      0.92566285	      0.48402785	     18.59296476	      2.18478148	    -11.75789240	     20.74688675	     20.74688675	      7.60338082	     -2.99611934	     -3.27139506	      7.95913479	    -10.16588613	     -5.28898263	     41.24773691	     41.24773691	     10.59513983	    -12.38714803	    -14.42449713	     -8.89860416	      7.26076596	      0.38240813	     -0.15301289	    -12.05638775	     -8.22446893	     38.26095392	     45.83565850	      0.00000000	      0.00000000	     11.39522450	    -12.02047435	    -13.51110396	     68.50102024	     47.28596863	      0.00000000	      0.00000000
     50.48028571	     -3.81976953	     -5.06969740	     -2.71579099	      0.83574553	      0.92598454	      0.48652137	     17.83416567	      2.38524683	    -12.31270873	     20.75628561	     20.75628561	      8.03197695	     -2.76794174	     -3.42156854	      9.77716577	    -10.78651135	     -4.36263519	     45.22544963	     45.22544963	      8.78897681	    -13.34307715	    -14.40499027	     -9.08006216	      7.38557553	      0.44826098	      1.53220807	    -12.18363519	     -8.18381276	     39.35167470	     45.80183496	      0.00000000	      0.00000000	     10.60265176	    -11.52543387	    -13.12692814	     67.39918624	     47.23729928	      0.00000000	      0.00000000
     50.49371429	     -3.87816123	     -5.08798773	     -2.21814118	      0.83513286	      0.92581710	      0.48857348	     17.43829524	      2.34519556	    -13.03552144	     20.80109690	     20.80109690	      8.55667100	     -2.14622924	     -3.59903224	     12.06077020	    -11.00490468	     -3.10520220	     49.13914114	     49.13914114	      7.07185672	    -14.70283699	    -13.37639747	     -8.76507422	      7.45368392	      0.04687352	      3.00989827	    -12.29413902	     -7.80509683	     41.54141683	     45.70532008	      0.00000000	      0.00000000	      9.86233555	    -11.33461211	    -12.54659836	     64.77012978	     47.15630127	      0.00000000	      0.00000000
     50.50714286	     -3.76194870	     -5.29958768	     -1.67090530	      0.83441685	      0.92591642	      0.49076118	     16.79029886	      2.58178019	    -13.70917845	     20.69967051	     20.69967051	      8.94297126	     -1.90559653	     -3.63889282	     14.18538677	    -11.52373429	     -2.09812148	     52.82701584	     52.82701584	      5.55328872	    -15.42852435	    -12.03390414	     -8.83205117	      7.60401044	      0.28817827	      4.37438764	    -12.63255538	     -7.53837787	     43.08045964	     45.64169112	      0.00000000	      0.00000000	      9.14988807	    -10.80347661	    -12.03262727	     63.03445893	     47.09044441	      0.00000000	      0.00000000
     50.52057143	     -3.62541047	     -5.37578700	     -1.20264177	      0.83345179	      0.92611492	      0.49267960	     16.19932762	      2.64900390	    -14.30167739	     20.72551180	     20.72551180	      9.51476105	     -1.43652928	     -3.42862585	     16.41788384	    -11.72531402	     -1.05796404	     56.57025003	     56.57025003	      6.39506525	    -14.88611718	     -5.29741908	     -8.94456185	      7.69145848	      1.23451250	      4.57528588	    -13.67890612	     -6.10951685	     47.07069270	     45.43129753	      0.00000000	      0.00000000	      9.68453661	    -10.14532452	    -10.53593807	     58.93200218	     46.94174811	      0.00000000	      0.00000000
